<svg width="590" height="125" viewBox="0 0 1590 725" fill="none" xmlns="http://www.w3.org/2000/svg">
<g filter="url(#filter0_i_9_1378)">
<path d="M-117 189.963C-107.533 188.125 -85.3102 184.62 -72.1559 185.298C-59.0017 185.977 -32.7929 196.606 -21.3328 201.836C-20.8346 196.748 -21.2332 185.213 -26.8137 179.785C-32.3943 174.357 -53.0558 156.038 -62.6889 147.557C-54.3845 149.253 -36.6794 153.07 -32.2947 154.766C-26.8138 156.886 -8.87617 174.273 -5.38831 179.785C-2.59802 184.196 3.74656 185.298 6.57007 185.298C17.1997 175.121 41.0501 154.766 51.414 154.766C61.7779 154.766 72.6734 158.441 76.8256 160.279C69.6838 164.661 54.6029 174.697 51.414 179.785C48.2251 184.874 59.0541 185.581 64.8672 185.298C76.9917 178.796 105.825 166.724 124.161 170.456C142.497 174.188 157.711 181.906 163.026 185.298C154.389 185.015 134.525 185.553 124.161 189.963C111.206 195.475 94.7631 200.564 93.7666 209.893C93.0363 216.73 101.448 217.921 106.824 217.638C107.319 217.588 107.787 217.551 108.216 217.526C107.784 217.574 107.317 217.612 106.824 217.638C101.759 218.145 93.7666 219.985 93.7666 224.311V242.97L124.161 248.058C130.804 254.278 145.985 269.855 153.559 282.407C161.132 294.959 168.008 302.62 170.5 304.882H195.911C201.392 304.882 206.873 293.008 223.814 282.407C237.367 273.926 253.046 266.434 259.191 263.748C334.875 230.672 406.752 225.583 447.809 230.672C502.551 237.457 537.228 260.356 571.638 271.381C593.648 278.433 621.43 282.407 629.901 282.407C633.056 277.177 643.254 264.851 658.8 257.387C674.346 249.924 694.509 248.058 702.648 248.058C720.585 256.398 758.852 274.943 768.419 282.407C777.985 289.87 787.021 290.322 790.342 289.616C791.173 285.375 795.724 276.724 807.283 276.046C818.843 275.367 839.671 275.763 848.639 276.046C825.553 266.717 777.188 248.058 768.419 248.058C759.649 248.058 740.516 244.666 732.045 242.97C742.011 238.87 765.628 230.672 780.377 230.672C798.813 230.672 832.695 230.248 843.657 238.729C852.426 245.514 860.266 247.776 863.089 248.058V224.311C855.615 216.82 838.076 201.836 827.712 201.836C817.348 201.836 823.394 193.921 827.712 189.963C836.681 191.235 856.313 195.391 863.089 201.836C871.56 209.893 879.034 217.526 892.487 217.526C904.788 217.526 931.252 205.118 935.695 198.13C936.334 194.752 936.334 193.521 936.334 196.324C936.334 196.868 936.111 197.475 935.695 198.13C934.884 202.419 933.042 210.172 928.86 217.526C922.881 228.043 923.379 236.043 924.376 238.729C939.822 229.117 973.405 209.469 984.168 207.773C994.93 206.077 1008.25 211.024 1013.57 213.71C996.957 222.05 965.333 240.595 971.711 248.058C978.089 255.522 984.998 257.387 987.656 257.387C982.839 261.487 971.312 269.77 963.739 270.109C954.272 270.533 940.32 266.717 938.327 271.381C936.334 276.046 935.836 279.438 949.787 282.407C963.739 285.375 983.669 282.831 993.635 270.109C1003.6 257.387 1026.52 247.21 1031.5 242.97C1035.49 239.577 1050.77 230.813 1057.91 226.855C1112.39 224.028 1230.71 215.067 1268.18 201.836C1315.02 185.298 1424.14 114.057 1499.87 111.937C1560.46 110.24 1596.54 111.23 1607 111.937V728H-117V189.963Z" fill="#466533"/>
</g>
<path d="M1590 688H-30V564L364.619 582.102L1590 599.752V688Z" fill="#D7C74F"/>
<path d="M-10 649.563H1599.82V692H-10V649.563Z" fill="#AB9447"/>
<path d="M307.492 642.356L262.775 654.767L181.166 679.989H1579.7L1611 654.767C1591.25 654.767 1548.28 652.285 1534.42 642.356C1520.56 632.428 1491.38 638.219 1478.53 642.356L1439.96 654.767H1049.24L1011.23 633.148H823.977L798.264 624.741C773.67 607.125 727.276 625.141 711.625 624.741C699.104 624.421 690.011 636.351 687.03 642.356L659.641 654.767H635.046L615.482 642.356H570.206L546.171 654.767H418.168L376.804 642.356H307.492Z" fill="#AB9447"/>
<path d="M27.2763 267.501C27.2763 299.647 11.5003 376.798 3.6123 411.355V576.686L1702 613.072V559.227H1077.86L491.19 536.323C481.823 532.439 459.244 522.42 443.862 513.419C428.48 504.418 420.362 449.395 418.226 423.008L399.492 442.296C389.961 419.258 370.898 375.11 370.898 382.825C370.898 390.54 361.695 455.154 357.094 486.497C350.028 471.763 336.289 445.35 337.867 457.565C339.839 472.835 326.035 524.67 319.133 513.419C313.611 504.418 304.343 485.291 300.399 476.853L283.637 486.497C275.091 492.792 258.001 501.605 258.001 486.497V442.296L234.337 476.853C224.97 480.603 199.136 485.854 170.74 476.853C135.244 465.602 161.373 411.355 140.174 411.355C118.974 411.355 104.677 442.296 102.705 411.355C100.733 380.414 97.7755 307.684 90.8734 346.259C85.3518 377.119 63.2654 423.142 52.9124 442.296L41.0804 411.355V346.259C41.0804 332.999 27.2763 227.318 27.2763 267.501Z" fill="#243719"/>
<path d="M51.241 602.521L33 612.566H445.149L482.124 602.521C479.363 563.302 403.408 509.833 365.776 488L281.472 559.525C273.256 557.65 249.723 555.025 221.326 559.525C192.929 564.026 157.894 590.064 143.925 602.521H51.241Z" fill="#A06347"/>
<path d="M1523.98 229.305L1605 214V580.966V623.159C1605 623.159 1343.72 629.61 1262.7 634L1237.89 620.831C1063.7 638.271 954.321 622.966 929.509 620.831C909.66 619.122 894.232 608.492 889 603.39L1032.3 452.475L1119.4 435.034L1147.25 410.831L1464.74 351.746L1523.98 229.305Z" fill="#5F4736"/>
<path d="M9.99283 12.5589L89.0248 28.2577C67.9293 37.7157 19.5075 58.1238 -5.41574 64.0918C-30.339 70.0598 -29.8861 113.687 -26.5442 134.754L98.5348 135.612C66.4185 158.735 -7.97259 205.693 -48.6064 208.54C-89.2403 211.387 -119.934 391.653 -130.202 481.43L-36.6951 448.719L-42.5272 435.98C-44.6189 433.359 -51.1013 427.66 -60.2978 425.833C-69.4942 424.006 -86.12 437.523 -93.2834 444.509L-97.6583 418.412L-82.0163 366.098C-74.9295 365.024 -56.482 365.214 -39.3869 374.566C-18.0181 386.255 -13.4655 371.029 -9.73014 358.537C-5.99472 346.044 28.3791 370.242 23.3597 387.03C19.3441 400.459 43.6605 410.776 56.3206 414.256C55.819 400.095 55.9436 369.018 60.455 358.002C66.0943 344.233 85.737 315.875 89.8226 302.211L100.095 267.856C113.463 286.504 138.762 329.965 133.011 354.63C126.179 379.743 107.518 433.442 87.5306 447.339C67.5435 461.236 60.5691 466.799 59.5803 467.843L128.393 443.048C152.862 437.017 206.362 427.682 224.616 438.587C242.871 449.492 272.811 466.91 285.499 474.255C254.318 467.096 188.238 454.356 173.361 460.666C158.484 466.975 103.716 475.231 78.192 478.571C121.657 481.415 212.301 491.313 227.155 508.161C242.009 525.008 271.319 552.226 284.117 563.729L290.642 589.427C258.808 585.585 190.195 575.43 170.417 565.546C150.64 555.662 93.8449 526.348 67.9197 512.926L26.9042 512.637C31.0795 516.775 42.6364 528.583 55.4617 542.711C68.287 556.839 77.5308 568.464 80.5496 572.51L48.4578 566.135C70.5136 584.579 114.816 627.955 115.579 653.914C116.035 669.446 -2.73345 630.545 -86.0726 613.858L-151.751 610.043C-166.966 610.869 -181.837 611.482 -203.781 607.021L-56.7346 11.712L9.99283 12.5589Z" fill="#131F10"/>
<rect y="685" width="1597" height="45" fill="#F5B868"/>
<defs>
<filter id="filter0_i_9_1378" x="-117" y="111" width="1724" height="621" filterUnits="userSpaceOnUse" color-interpolation-filters="sRGB">
<feFlood flood-opacity="0" result="BackgroundImageFix"/>
<feBlend mode="normal" in="SourceGraphic" in2="BackgroundImageFix" result="shape"/>
<feColorMatrix in="SourceAlpha" type="matrix" values="0 0 0 0 0 0 0 0 0 0 0 0 0 0 0 0 0 0 127 0" result="hardAlpha"/>
<feOffset dy="4"/>
<feGaussianBlur stdDeviation="2"/>
<feComposite in2="hardAlpha" operator="arithmetic" k2="-1" k3="1"/>
<feColorMatrix type="matrix" values="0 0 0 0 0 0 0 0 0 0 0 0 0 0 0 0 0 0 0.25 0"/>
<feBlend mode="normal" in2="shape" result="effect1_innerShadow_9_1378"/>
</filter>
</defs>
</svg>
