<svg width="542" height="149" viewBox="0 0 542 149" fill="none" xmlns="http://www.w3.org/2000/svg">
<g filter="url(#filter0_dd_2_2223)">
<path d="M41.8531 116.05C38.6531 116.05 35.4531 115.9 32.2531 115.6C29.0531 115.3 25.7531 114.85 22.3531 114.25C19.0531 113.65 15.6531 112.9 12.1531 112V4.44999H25.5031V49.9C28.6031 46.3 32.2031 43.4 36.3031 41.2C40.5031 38.9 45.2031 37.75 50.4031 37.75C56.6031 37.75 61.8031 39.35 66.0031 42.55C70.3031 45.75 73.5531 50.2 75.7531 55.9C77.9531 61.5 79.0531 68.05 79.0531 75.55C79.0531 83.45 77.8031 90.45 75.3031 96.55C72.8031 102.65 68.8031 107.45 63.3031 110.95C57.9031 114.35 50.7531 116.05 41.8531 116.05ZM41.7031 105.7C47.0031 105.7 51.4031 104.65 54.9031 102.55C58.4031 100.35 61.0031 97.05 62.7031 92.65C64.4031 88.25 65.2531 82.7 65.2531 76C65.2531 67 63.6531 60.15 60.4531 55.45C57.3531 50.75 52.5031 48.4 45.9031 48.4C41.6031 48.4 37.8031 49.4 34.5031 51.4C31.2031 53.4 28.2031 56.25 25.5031 59.95V103.3C28.5031 104 31.3031 104.6 33.9031 105.1C36.6031 105.5 39.2031 105.7 41.7031 105.7ZM16.6531 4.44999L15.0031 16.15L3.75313 13.75C2.95313 13.55 2.35313 13.2 1.95313 12.7C1.55313 12.2 1.35313 11.5 1.35313 10.6V4.44999H16.6531ZM99.0957 115V38.95H112.446V115H99.0957ZM88.2957 115V108.85C88.2957 107.95 88.4957 107.25 88.8957 106.75C89.2957 106.15 89.8957 105.8 90.6957 105.7L101.946 103.3L103.596 115H88.2957ZM107.946 115L109.596 103.3L120.846 105.7C121.646 105.8 122.246 106.15 122.646 106.75C123.046 107.25 123.246 107.95 123.246 108.85V115H107.946ZM103.596 38.95L101.946 50.65L90.6957 48.25C89.8957 48.05 89.2957 47.7 88.8957 47.2C88.4957 46.7 88.2957 46 88.2957 45.1V38.95H103.596ZM105.546 24.55C103.046 24.55 100.846 23.6 98.9457 21.7C97.0457 19.8 96.0957 17.6 96.0957 15.1C96.0957 12.5 97.0457 10.25 98.9457 8.35C100.846 6.45 103.046 5.5 105.546 5.5C108.146 5.5 110.396 6.45 112.296 8.35C114.196 10.25 115.146 12.5 115.146 15.1C115.146 17.6 114.196 19.8 112.296 21.7C110.396 23.6 108.146 24.55 105.546 24.55ZM157.958 116.2C151.958 116.2 147.308 114.55 144.008 111.25C140.808 107.85 139.208 103 139.208 96.7V50.2H130.058C129.258 50.2 128.558 49.95 127.958 49.45C127.458 48.95 127.208 48.2 127.208 47.2V41.95L139.658 40.3L142.808 16.9C143.008 15.2 144.008 14.35 145.808 14.35H152.558V40.45H174.308V50.2H152.558V95.8C152.558 99 153.308 101.4 154.808 103C156.408 104.5 158.458 105.25 160.958 105.25C162.058 105.25 163.258 104.95 164.558 104.35C165.858 103.75 167.058 103.15 168.158 102.55C169.258 101.95 170.058 101.65 170.558 101.65C171.258 101.65 171.858 102.05 172.358 102.85L176.258 109.3C173.958 111.4 171.158 113.1 167.858 114.4C164.658 115.6 161.358 116.2 157.958 116.2ZM218.45 116.05C211.85 116.05 206 114.45 200.9 111.25C195.9 107.95 191.95 103.35 189.05 97.45C186.25 91.55 184.85 84.7 184.85 76.9C184.85 69.3 186.2 62.55 188.9 56.65C191.6 50.75 195.6 46.15 200.9 42.85C206.2 39.45 212.8 37.75 220.7 37.75C223.8 37.75 227.4 38.3 231.5 39.4C235.6 40.4 239.5 41.65 243.2 43.15V51.25L235.4 50.8C233.4 50.1 231.25 49.5 228.95 49C226.75 48.5 224.25 48.25 221.45 48.25C216.35 48.25 212.1 49.45 208.7 51.85C205.4 54.15 202.9 57.45 201.2 61.75C199.5 66.05 198.65 71.1 198.65 76.9C198.65 85.6 200.55 92.6 204.35 97.9C208.15 103.1 213.6 105.7 220.7 105.7C224.6 105.7 227.8 105.1 230.3 103.9C232.8 102.6 234.85 101.35 236.45 100.15C238.05 98.85 239.3 98.2 240.2 98.2C240.7 98.2 241.15 98.3 241.55 98.5C242.05 98.7 242.45 99 242.75 99.4L246.5 104.35C243.2 108.35 239.1 111.3 234.2 113.2C229.3 115.1 224.05 116.05 218.45 116.05ZM233.6 49.3L243.2 51.25V62.95H238.25C237.25 62.95 236.5 62.75 236 62.35C235.5 61.85 235.2 61.25 235.1 60.55L233.6 49.3ZM277.348 116.2C273.348 116.2 269.748 115.45 266.548 113.95C263.348 112.35 260.798 110.05 258.898 107.05C256.998 104.05 256.048 100.35 256.048 95.95C256.048 92.95 256.848 90.1 258.448 87.4C260.148 84.6 262.848 82.1 266.548 79.9C270.248 77.8 275.048 76.05 280.948 74.65C286.948 73.25 294.248 72.45 302.848 72.25V66.4C302.848 60.5 301.548 56.05 298.948 53.05C296.448 49.95 292.748 48.4 287.848 48.4C285.248 48.4 282.498 49.1 279.598 50.5C276.798 51.8 274.198 53.15 271.798 54.55C269.398 55.85 267.498 56.5 266.098 56.5C265.198 56.5 264.398 56.25 263.698 55.75C263.098 55.25 262.598 54.65 262.198 53.95L259.798 49.75C263.998 45.65 268.498 42.6 273.298 40.6C278.198 38.6 283.598 37.6 289.498 37.6C295.198 37.6 299.998 38.8 303.898 41.2C307.798 43.6 310.748 46.95 312.748 51.25C314.848 55.55 315.898 60.6 315.898 66.4V115H310.048C308.748 115 307.698 114.8 306.898 114.4C306.098 114 305.548 113.15 305.248 111.85L303.748 104.8C299.748 108.4 295.748 111.2 291.748 113.2C287.748 115.2 282.948 116.2 277.348 116.2ZM281.248 106.75C285.748 106.75 289.698 105.85 293.098 104.05C296.498 102.25 299.748 99.75 302.848 96.55V80.8C297.648 80.9 292.948 81.3 288.748 82C284.548 82.6 280.948 83.5 277.948 84.7C275.048 85.8 272.798 87.25 271.198 89.05C269.698 90.75 268.948 92.85 268.948 95.35C268.948 99.35 270.098 102.25 272.398 104.05C274.798 105.85 277.748 106.75 281.248 106.75ZM311.398 115L313.048 103.3L324.298 105.7C325.098 105.8 325.698 106.15 326.098 106.75C326.498 107.25 326.698 107.95 326.698 108.85V115H311.398ZM343.578 115V38.95H351.528C353.528 38.95 354.728 39.9 355.128 41.8L356.178 49.6C358.978 46.1 362.078 43.25 365.478 41.05C368.978 38.85 373.028 37.75 377.628 37.75C382.828 37.75 386.978 39.2 390.078 42.1C393.278 44.9 395.578 48.75 396.978 53.65C399.078 48.25 402.328 44.25 406.728 41.65C411.228 39.05 416.078 37.75 421.278 37.75C429.378 37.75 435.628 40.35 440.028 45.55C444.428 50.65 446.628 57.65 446.628 66.55V115H433.278V66.55C433.278 60.65 431.978 56.15 429.378 53.05C426.778 49.95 422.978 48.4 417.978 48.4C413.378 48.4 409.478 50.05 406.278 53.35C403.178 56.55 401.628 60.95 401.628 66.55V115H388.278V66.55C388.278 60.45 387.028 55.9 384.528 52.9C382.128 49.9 378.578 48.4 373.878 48.4C370.578 48.4 367.528 49.3 364.728 51.1C361.928 52.9 359.328 55.3 356.928 58.3V115H343.578ZM332.778 115V108.85C332.778 107.95 332.978 107.25 333.378 106.75C333.778 106.15 334.378 105.8 335.178 105.7L346.428 103.3L348.078 115H332.778ZM352.428 115L354.078 103.3L365.328 105.7C366.128 105.8 366.728 106.15 367.128 106.75C367.528 107.25 367.728 107.95 367.728 108.85V115H352.428ZM397.128 115L398.778 103.3L410.028 105.7C410.828 105.8 411.428 106.15 411.828 106.75C412.228 107.25 412.428 107.95 412.428 108.85V115H397.128ZM348.078 38.95L346.428 50.65L335.178 48.25C334.378 48.05 333.778 47.7 333.378 47.2C332.978 46.7 332.778 46 332.778 45.1V38.95H348.078ZM442.128 115L443.778 103.3L455.028 105.7C455.828 105.8 456.428 106.15 456.828 106.75C457.228 107.25 457.428 107.95 457.428 108.85V115H442.128ZM474.389 140.8V38.95H482.339C484.339 38.95 485.539 39.9 485.939 41.8L487.139 50.8C490.339 46.8 494.039 43.6 498.239 41.2C502.439 38.8 507.239 37.6 512.639 37.6C518.839 37.6 524.089 39.2 528.389 42.4C532.689 45.6 535.939 50.1 538.139 55.9C540.339 61.7 541.439 68.55 541.439 76.45C541.439 83.75 540.139 90.4 537.539 96.4C534.939 102.4 531.189 107.2 526.289 110.8C521.389 114.3 515.489 116.05 508.589 116.05C503.889 116.05 499.889 115.3 496.589 113.8C493.289 112.2 490.339 109.95 487.739 107.05V140.8H474.389ZM505.589 105.7C510.389 105.7 514.389 104.6 517.589 102.4C520.889 100.1 523.389 96.75 525.089 92.35C526.789 87.95 527.639 82.65 527.639 76.45C527.639 67.25 526.039 60.3 522.839 55.6C519.639 50.8 514.789 48.4 508.289 48.4C503.889 48.4 500.039 49.4 496.739 51.4C493.539 53.4 490.539 56.25 487.739 59.95V96.7C490.239 100 492.939 102.35 495.839 103.75C498.739 105.05 501.989 105.7 505.589 105.7ZM478.889 38.95L477.239 50.65L465.989 48.25C465.189 48.05 464.589 47.7 464.189 47.2C463.789 46.7 463.589 46 463.589 45.1V38.95H478.889ZM463.589 140.8V134.65C463.589 133.75 463.789 133 464.189 132.4C464.589 131.9 465.189 131.6 465.989 131.5L477.239 129.1L478.889 140.8H463.589ZM483.239 140.8L484.889 129.1L496.139 131.5C496.939 131.6 497.539 131.9 497.939 132.4C498.339 133 498.539 133.75 498.539 134.65V140.8H483.239Z" fill="#FFD978"/>
</g>
<defs>
<filter id="filter0_dd_2_2223" x="0.353149" y="0.450012" width="541.086" height="148.35" filterUnits="userSpaceOnUse" color-interpolation-filters="sRGB">
<feFlood flood-opacity="0" result="BackgroundImageFix"/>
<feColorMatrix in="SourceAlpha" type="matrix" values="0 0 0 0 0 0 0 0 0 0 0 0 0 0 0 0 0 0 127 0" result="hardAlpha"/>
<feOffset dy="8"/>
<feComposite in2="hardAlpha" operator="out"/>
<feColorMatrix type="matrix" values="0 0 0 0 0.444401 0 0 0 0 0.286351 0 0 0 0 0.0320955 0 0 0 1 0"/>
<feBlend mode="normal" in2="BackgroundImageFix" result="effect1_dropShadow_2_2223"/>
<feColorMatrix in="SourceAlpha" type="matrix" values="0 0 0 0 0 0 0 0 0 0 0 0 0 0 0 0 0 0 127 0" result="hardAlpha"/>
<feOffset dx="-1" dy="-4"/>
<feComposite in2="hardAlpha" operator="out"/>
<feColorMatrix type="matrix" values="0 0 0 0 1 0 0 0 0 0.941613 0 0 0 0 0.772222 0 0 0 1 0"/>
<feBlend mode="normal" in2="effect1_dropShadow_2_2223" result="effect2_dropShadow_2_2223"/>
<feBlend mode="normal" in="SourceGraphic" in2="effect2_dropShadow_2_2223" result="shape"/>
</filter>
</defs>
</svg>
