<svg width="2896" height="2896" viewBox="0 0 2896 2896" fill="none" xmlns="http://www.w3.org/2000/svg">
<path d="M2810.12 569.698C2756.9 536.665 2690.43 533.814 2634.05 561.733L2172 792.599V543C2172 442.952 2091.05 362 1991 362H181C80.9523 362 0 442.952 0 543V2353C0 2452.69 80.9523 2534 181 2534H1991C2091.05 2534 2172 2452.69 2172 2353V2102.54L2634.05 2333.54C2659.66 2346.26 2687.26 2352.64 2715 2352.64C2748.03 2352.64 2781.11 2343.63 2810.12 2325.58C2863.51 2292.55 2896 2234.35 2896 2171.64V723.638C2896 660.876 2863.47 602.73 2810.12 569.698Z" fill="#FFC226"/>
</svg>
