<svg width="162" height="211" viewBox="0 0 162 211" fill="none" xmlns="http://www.w3.org/2000/svg">
<path fill-rule="evenodd" clip-rule="evenodd" d="M94.2267 10.8911C102.458 6.04176 116.069 8.87055 121.845 10.8911C119.679 8.46643 120.22 4.82946 120.762 3.31406C131.13 -3.59417 142.399 2.09448 146.77 4.30109C147.193 4.51472 147.552 4.69572 147.839 4.82948C149.596 5.64924 159.435 13.7118 168.355 21.0214L168.356 21.0214L168.356 21.022L168.357 21.0226C173.388 25.1455 178.127 29.0287 180.959 31.2374C182.226 29.6748 183.503 27.447 183.503 25.0871C183.503 21.5756 189.16 18.6494 191.989 17.6252C194.974 20.1125 199.437 25.8772 193.403 29.0375C194.346 30.5006 195.948 34.0413 194.817 36.4994C198.431 34.451 205.754 29.8276 206.131 27.7207C206.602 25.0871 208.016 17.1863 214.616 16.7474V23.7703C214.616 27.4683 213.685 34.9893 210.2 38.9527C213.542 35.7835 218.224 29.9736 218.859 23.7703C221.373 23.0387 225.835 23.068 223.573 29.0375C221.31 35.007 222.001 37.0846 222.63 37.3772C224.201 37.2309 226.778 37.9917 224.516 42.2055C222.359 46.2207 228.969 42.839 233.695 40.4212C235.169 39.6673 236.459 39.007 237.243 38.694C238.556 38.1702 239.197 36.8824 239.82 35.6318C240.763 33.7385 241.663 31.9306 244.786 32.9879C246.357 34.0121 247.991 37.2895 241.957 42.2055C235.924 47.1216 238.815 44.8391 241.015 43.0834C241.015 45.278 240.072 50.0185 236.301 51.4231C238.501 52.4473 243.655 52.9155 246.672 46.5948C249.689 40.2742 252.957 42.7908 254.214 44.8391C253.271 46.4485 251.386 50.0185 251.386 51.4231C251.386 51.8931 251.521 52.7089 251.682 53.6855C252.125 56.3575 252.767 60.2328 251.386 61.5186C250.842 62.0248 251.317 61.6918 252.404 60.93C255.088 59.0494 261.502 54.555 265.528 53.6178C271.185 52.301 268.356 57.1292 266.942 58.4461C266.708 58.6643 266.201 59.0395 265.545 59.5254C262.243 61.9707 255.152 67.2224 259.871 69.4194C260.814 66.6395 263.265 61.6942 265.528 64.1522C268.356 67.2247 265.056 77.7591 263.642 77.7591C262.228 77.7591 257.042 79.0759 257.985 82.1485C258.614 80.978 261.002 78.9881 265.528 80.3927C266.471 78.9296 268.639 76.0034 269.77 76.0034C270.902 76.0034 271.499 80.1001 271.656 82.1485C270.085 85.3673 266.942 92.4195 266.942 94.8775C266.942 97.3356 273.227 92.0976 276.37 89.1714L279.198 94.8775C276.684 95.6091 271.656 98.8279 271.656 105.851C271.656 112.874 273.542 124.579 274.484 129.553C283.913 121.214 303.617 102.603 307.011 94.8775C311.254 85.221 319.268 88.2935 322.568 97.0722C325.868 105.851 321.154 110.24 314.082 108.046C301.983 115.654 276.559 132.801 271.656 140.527C270.961 141.622 270.278 142.66 269.628 143.65C264.54 151.389 261.411 156.147 269.77 161.595C277.156 167.448 291.644 180.557 290.512 186.176C289.381 191.794 277.47 197.881 271.656 200.222L266.942 198.027L268.356 203.733C266.785 204.611 263.359 206.454 262.228 206.806C261.097 207.157 263.956 204.318 265.528 202.855C258.3 204.026 242.806 207.157 238.658 210.317C237.715 210.61 236.583 210.58 239.6 208.122C242.617 205.664 255.943 200.368 262.228 198.027L249.5 198.905C247.457 200.807 242.995 204.435 241.486 203.733C239.978 203.031 244 200.222 246.2 198.905L223.101 200.222C221.216 199.344 218.953 197.325 224.987 196.271C231.021 195.218 239.758 195.247 243.372 195.393L231.587 191.004C231.115 190.419 231.115 189.336 234.886 189.687C238.658 190.038 248.714 190.711 253.271 191.004C263.014 189.98 282.404 187.317 282.027 184.859C281.65 182.401 268.356 173.593 261.757 169.496C261.914 173.447 259.965 180.294 250.914 176.08C239.6 170.813 230.644 140.966 247.614 134.382C249.814 133.65 254.968 134.469 257.985 143.599C261.914 140.819 269.77 134.557 269.77 131.748C269.77 128.236 253.743 101.023 247.614 96.1943C242.712 92.3317 248.086 86.6841 251.386 84.3431C247.771 82.88 240.826 82.0607 241.957 90.4882C243.089 98.9157 238.343 89.0251 235.829 83.0263L241.957 73.8087C239.443 74.1013 234.132 75.8278 233.001 80.3927C231.869 84.9576 232.529 88.1472 233.001 89.1714L225.93 76.8813C225.564 74.2726 225.765 69.3252 228.509 66.2512C225.013 68.9873 221.378 73.1379 223.101 76.8813C225.93 83.0263 214.616 68.1026 216.973 58.4461C213.202 59.1776 207.922 63.8888 216.973 76.8813C211.945 71.1751 203.019 58.2705 207.545 52.301C204.088 53.3252 198.683 58.885 204.717 72.9309L188.217 54.9346C189.926 51.7526 190.953 44.4348 184.18 37.1942C184.039 38.4627 183.792 39.7683 183.58 40.6945C178.514 41.0095 178.713 44.0749 178.924 47.3179C179.052 49.2751 179.183 51.2969 178.164 52.8179C175.998 56.0508 181.594 65.9516 184.663 70.4978C186.287 73.0235 190.728 78.7822 195.493 81.6109C201.45 85.1469 194.952 90.7035 191.703 90.7035C188.453 90.7035 185.204 95.7549 185.746 97.7755C186.287 99.796 177.623 113.94 170.583 121.517C163.836 128.779 156.591 133.257 154.57 134.506C154.482 134.561 154.404 134.609 154.337 134.651C154.089 134.805 153.627 135.159 152.994 135.644C149.472 138.342 140.643 145.105 133.759 144.248C127.275 143.442 116.996 146.819 111.184 148.729C109.714 149.212 108.53 149.601 107.765 149.805C107.109 149.98 105.53 150.548 103.279 151.357L103.279 151.357C92.5181 155.225 66.4122 164.61 52.5287 162.939C39.0987 161.322 35.3802 152.162 35.1996 147.784C35.1996 147.279 34.6581 145.865 32.492 144.248C30.3258 142.632 29.4233 138.187 29.2428 136.166L34.1166 138.187C33.2501 135.358 33.7556 130.273 34.1166 128.084C34.1166 130.913 38.4488 135.998 40.615 138.187C39.3153 134.146 41.1565 129.768 42.2396 128.084C42.6425 129.888 43.1821 132.336 43.579 134.206C43.4732 131.885 44.0409 129.34 44.5714 127.649C44.0454 130.975 47.35 137.208 49.2795 140.207C46.6801 135.762 48.1964 127.916 49.2795 124.548C47.9798 128.993 53.4313 135.493 56.3194 138.187C54.1533 132.933 54.6948 127.579 55.2364 125.558C56.1028 131.62 59.5686 136.503 61.1932 138.187C60.0055 135.232 60.5363 131.491 61.0499 129.583C60.8641 131.376 63.5064 134.635 64.984 136.166L66.6086 133.64C65.4335 129.622 65.9405 124.749 66.4488 122.234C66.355 125.319 72.4834 130.999 75.8146 133.64C72.0239 130.104 74.19 116.971 74.19 121.517C74.19 125.154 78.5223 130.104 80.6884 132.125C81.4105 133.64 82.6379 135.762 81.7715 132.125C80.905 128.488 81.4105 125.558 81.7715 124.548C82.674 126.905 84.4791 131.418 84.4791 130.61V116.971C86.2843 122.527 89.8945 132.731 89.8945 129.094C89.8945 125.457 91.3386 122.527 92.0606 121.517C92.0606 123.706 92.4938 128.084 94.2267 128.084C95.9596 128.084 98.92 126.4 100.184 125.558C98.559 125.053 94.2267 115.961 95.8513 117.981C97.1211 119.56 100.907 121.911 102.763 122.961C100.769 121.638 101.808 112.476 101.808 114.95C101.808 116.971 103.974 119.497 105.057 120.507C106.501 118.486 110.473 113.334 114.805 108.889C118.442 105.157 125.742 100.514 133.753 95.419C137.671 92.9271 141.759 90.3271 145.672 87.6726C155.203 81.2068 164.446 79.5904 167.875 79.5904C174.193 79.9271 186.179 79.7924 183.58 76.5595C180.98 73.3266 175.637 73.1919 173.291 73.5287C168.417 73.8654 157.586 74.741 153.254 75.5492C152.413 75.7061 151.611 75.8751 150.833 76.0393C146.596 76.9327 143.039 77.6828 137.549 75.5492C132.351 73.5287 122.386 74.7073 118.054 75.5492C108.09 72.3163 100.184 75.886 97.4759 78.075C96.1763 79.6914 98.0175 82.7896 99.1005 84.1366C95.6347 82.9243 93.6852 81.9477 93.1437 81.6109C92.2772 83.6315 93.5047 86.494 94.2267 87.6726C89.8945 86.0562 87.7283 82.958 87.1868 81.6109C86.7536 83.2274 88.8114 88.3462 89.8945 90.7035C85.5622 88.2788 83.3961 85.3153 82.8545 84.1366C83.2878 89.3901 85.2012 94.0711 86.1037 95.7549C80.4718 92.9261 78.3418 87.841 77.9808 85.6521C75.8146 86.4603 72.0239 87.3359 70.3993 87.6726C71.2312 98.1491 73.0217 102.366 73.8073 104.217C74.0444 104.775 74.19 105.118 74.19 105.353C69.4245 102.12 66.067 95.2497 64.984 92.2189C64.984 100.301 67.1501 108.383 68.2332 111.414C63.9009 109.394 57.7635 98.7857 55.2364 93.7343V100.806C49.8121 94.9681 48.9758 92.7223 49.2441 92.2638C46.714 95.5242 50.3725 103.348 52.5287 106.868C46.743 105.181 42.889 97.4136 40.6442 92.8892C39.5272 90.6379 38.8087 89.1897 38.4488 89.6932C37.5824 90.9055 38.0878 94.2395 38.4488 95.7549C37.2549 95.0125 36.646 93.1788 36.407 92.4592C36.3208 92.1996 36.2827 92.085 36.2827 92.2189V98.2806C34.1166 96.6641 32.131 92.5557 31.4089 90.7035C30.9757 103.231 33.7556 107.71 35.1996 108.383C30.5084 107.19 25.7821 96.4344 23.914 90.9594C24.5167 93.2526 22.3345 99.7514 21.1198 102.827C21.9862 99.594 19.3147 93.3976 17.8706 90.7035C15.2712 92.3199 18.2316 108.889 20.0367 116.971C16.5709 115.758 12.4553 107.036 10.8307 102.827L12.4553 111.414C3.79073 104.544 3.79073 94.0711 4.8738 89.6932C3.2492 88.5145 0 83.0253 0 70.4978C0 54.8385 36.8242 36.6534 61.1932 32.6122C77.334 29.9356 82.0712 23.9348 86.4199 18.4262C88.6367 15.6181 90.7526 12.9379 94.2267 10.8911ZM66.6086 121.517C66.5081 121.736 66.4566 121.976 66.4488 122.234C66.5027 121.967 66.5566 121.727 66.6086 121.517ZM61.1932 129.094C61.1148 129.24 61.0683 129.404 61.0499 129.583C61.0983 129.403 61.1466 129.239 61.1932 129.094ZM44.9472 126.569C44.758 126.877 44.6359 127.242 44.5714 127.649C44.7025 127.231 44.8314 126.866 44.9472 126.569ZM95.8514 26.0455C99.3172 22.0043 101.628 24.3617 102.35 26.0455C99.1006 27.0559 104.516 45.7459 107.224 52.3127C109.931 58.8795 102.35 65.4464 99.1006 61.9104C95.8514 58.3744 86.1038 56.859 78.5223 58.3744C70.9409 59.8898 66.0671 53.8281 69.3163 45.7459C71.9156 39.28 79.0639 33.9592 82.3131 32.107C85.3818 31.7703 92.3856 30.0866 95.8514 26.0455ZM115.347 24.5299C113.361 27.7291 110.798 36.0471 116.43 43.7253C121.112 50.1081 121.722 53.5866 122.083 55.6465C122.265 56.684 122.384 57.3616 122.928 57.8692C124.553 59.3847 134.3 59.3847 129.968 53.323C126.502 48.4736 125.275 44.9039 125.094 43.7253C123.109 43.0517 120.87 40.6944 127.802 36.6533C134.734 32.6122 133.217 28.2343 131.593 26.5505C128.524 23.688 120.979 19.2764 115.347 24.5299ZM5.41539 67.4669C7.1483 57.364 23.1055 51.134 30.8674 49.2818C33.9 47.2612 28.5208 55.1751 25.4521 59.3847C16.7786 61.959 17.864 62.9268 18.678 63.6527C18.9821 63.9239 19.2483 64.1612 18.9537 64.436C18.8976 64.4883 18.8052 64.5772 18.6807 64.697L18.6787 64.699L18.6783 64.6994C16.3921 66.8993 3.36217 79.4371 5.41539 67.4669ZM63.3594 65.9515C60.1102 64.6044 53.8285 61.4052 54.6949 59.3847C55.778 56.859 59.5687 49.787 63.3594 53.323C67.1502 56.859 64.4425 65.9515 63.3594 65.9515ZM69.3163 59.3847C68.0527 61.5736 66.2837 66.2545 69.3163 67.4669C73.107 68.9823 73.4377 57.8693 69.3163 59.3847ZM157.586 25.5401C156.72 28.773 162.641 32.2753 165.709 33.6223C165.168 34.1275 163.11 35.0368 159.211 34.6327C154.337 34.1276 153.796 38.6738 157.586 42.2098C160.619 45.0386 161.377 47.7664 161.377 48.7767C150.98 52.4137 159.933 61.0684 165.709 64.9412C147.862 71.6903 148.49 45.1754 148.84 30.3753L148.84 30.3741C148.883 28.5588 148.922 26.9198 148.922 25.5401C148.922 12.9115 158.669 21.4989 157.586 25.5401ZM143.506 120.002C152.604 119.193 159.933 113.94 162.46 111.414C164.193 109.926 163.182 115.172 162.46 117.981C166.788 120.002 156.321 126.568 150.546 129.599C150.98 125.558 146.756 126.232 144.589 127.074C134.842 127.074 132.134 121.012 143.506 120.002Z" fill="#CBA175"/>
</svg>
